<svg width="74" height="75" viewBox="0 0 74 75" fill="none" xmlns="http://www.w3.org/2000/svg">
<circle cx="35" cy="35" r="35" fill="#B0E0E6"/>
<rect x="33" y="9" width="5" height="30" rx="2.5" fill="white"/>
<rect x="13" y="40" width="5" height="25" rx="2.5" transform="rotate(-90 13 40)" fill="white"/>
<g clip-path="url(#clip0_2_7)">
<path d="M36.0922 50.1984C34.8859 48.4757 34.4134 46.3443 34.7786 44.2732C35.1438 42.202 36.3168 40.3608 38.0395 39.1545C39.7623 37.9482 41.8936 37.4757 43.9648 37.8409C46.0359 38.2061 47.8771 39.3791 49.0834 41.1019C49.2082 41.2801 49.2571 41.5006 49.2193 41.7148C49.1815 41.9291 49.0602 42.1196 48.882 42.2443C48.7038 42.3691 48.4833 42.418 48.269 42.3802C48.0548 42.3424 47.8643 42.2211 47.7395 42.0429C46.7828 40.6766 45.3225 39.7463 43.6799 39.4566C42.0373 39.167 40.3469 39.5417 38.9805 40.4984C37.6142 41.4552 36.6839 42.9154 36.3943 44.5581C36.1047 46.2007 36.4794 47.8911 37.4361 49.2574C37.5609 49.4356 37.6098 49.6561 37.572 49.8704C37.5342 50.0846 37.4129 50.2751 37.2347 50.3999C37.0564 50.5247 36.836 50.5735 36.6217 50.5358C36.4074 50.498 36.217 50.3766 36.0922 50.1984ZM55.1545 44.5284C54.5713 44.9359 54.1246 45.5099 53.8727 46.1753C53.4517 45.7863 52.943 45.5047 52.3897 45.3548C51.8365 45.2049 51.2552 45.1909 50.6954 45.3142C50.1356 45.4375 49.6139 45.6943 49.1748 46.0627C48.7358 46.4312 48.3923 46.9003 48.1737 47.4302L45.4996 43.6113C44.9589 42.839 44.1335 42.3132 43.2051 42.1495C42.2766 41.9858 41.3212 42.1976 40.5489 42.7383C39.7767 43.2791 39.2508 44.1044 39.0871 45.0329C38.9234 45.9613 39.1352 46.9168 39.676 47.689L46.4984 57.4325L44.7062 56.6678C43.8502 56.2713 42.8717 56.231 41.986 56.5558C41.1003 56.8807 40.3799 57.5441 39.9833 58.4001C39.5867 59.2562 39.5464 60.2347 39.8713 61.1204C40.1962 62.0061 40.8596 62.7265 41.7156 63.1231L48.9202 66.4235C49.1165 66.508 49.3381 66.5126 49.5378 66.4362C49.7374 66.3598 49.8994 66.2085 49.9891 66.0144C50.0789 65.8204 50.0893 65.599 50.0183 65.3974C49.9472 65.1958 49.8003 65.0299 49.6087 64.935L42.4075 61.6322C42.1797 61.526 41.975 61.3759 41.8052 61.1905C41.6354 61.0052 41.5037 60.7883 41.4177 60.552C41.2441 60.075 41.2671 59.5485 41.4817 59.0884C41.6962 58.6283 42.0848 58.2723 42.5618 58.0987C42.798 58.0127 43.0489 57.9741 43.3 57.9851C43.5511 57.9961 43.7976 58.0564 44.0254 58.1626C44.0332 58.1672 44.0415 58.1709 44.05 58.1738L48.4946 60.0688C48.6586 60.1391 48.8411 60.154 49.0144 60.1113C49.1877 60.0685 49.3424 59.9704 49.4548 59.8318C49.5673 59.6932 49.6315 59.5217 49.6377 59.3433C49.6439 59.1649 49.5917 58.9894 49.4891 58.8433L41.0199 46.748C40.7287 46.3322 40.6147 45.8177 40.7028 45.3178C40.791 44.8178 41.0741 44.3734 41.4899 44.0822C41.9058 43.7911 42.4203 43.677 42.9202 43.7652C43.4201 43.8533 43.8645 44.1365 44.1557 44.5523L49.4882 52.1678C49.613 52.3461 49.8034 52.4674 50.0177 52.5052C50.232 52.543 50.4524 52.4941 50.6307 52.3693C50.8089 52.2445 50.9302 52.054 50.968 51.8398C51.0058 51.6255 50.9569 51.405 50.8321 51.2268L49.8911 49.8829C49.5999 49.4671 49.4859 48.9526 49.574 48.4527C49.6622 47.9527 49.9453 47.5083 50.3611 47.2171C50.777 46.926 51.2914 46.8119 51.7914 46.9001C52.2913 46.9882 52.7357 47.2713 53.0269 47.6872L54.5953 49.927C54.7201 50.1053 54.9105 50.2266 55.1248 50.2644C55.339 50.3022 55.5595 50.2533 55.7377 50.1285C55.916 50.0037 56.0373 49.8132 56.0751 49.599C56.1129 49.3847 56.064 49.1642 55.9392 48.986L55.6255 48.538C55.3343 48.1222 55.2203 47.6077 55.3084 47.1078C55.3966 46.6079 55.6797 46.1634 56.0956 45.8723C56.5114 45.5811 57.0259 45.4671 57.5258 45.5552C58.0257 45.6434 58.4702 45.9265 58.7613 46.3423L61.5844 50.3741C63.3198 52.8525 63.6825 55.1105 63.6856 55.1316C63.719 55.3451 63.8352 55.5368 64.0091 55.665C64.183 55.7933 64.4004 55.8477 64.6142 55.8166C64.7411 55.801 64.8623 55.755 64.9677 55.6826C65.0929 55.5953 65.1913 55.4747 65.2518 55.3345C65.3122 55.1943 65.3323 55.0399 65.3099 54.8889C65.2942 54.7831 64.9001 52.2467 62.9294 49.4323L60.1064 45.4005C59.8386 45.018 59.498 44.6921 59.1042 44.4412C58.7104 44.1904 58.271 44.0196 57.8111 43.9386C57.3513 43.8576 56.88 43.868 56.4242 43.9692C55.9683 44.0704 55.5369 44.2604 55.1545 44.5284Z" fill="white"/>
</g>
<defs>
<clipPath id="clip0_2_7">
<rect width="35" height="35" fill="white" transform="translate(24.5327 45.6079) rotate(-35)"/>
</clipPath>
</defs>
</svg>
